HIERARCHY
ROOT Hip
{
	OFFSET	0.0000	0.0000	0.0000
	CHANNELS 6 Xposition Yposition Zposition Xrotation Yrotation Zrotation
	JOINT LowerSpine
	{
		OFFSET	0.0000	10.2468	-5.5450
		CHANNELS 3 Xrotation Yrotation Zrotation
		JOINT MiddleSpine
		{
			OFFSET	0.0000	9.3510	0.4885
			CHANNELS 3 Xrotation Yrotation Zrotation
			JOINT Chest
			{
				OFFSET	0.0000	11.5708	-2.5755
				CHANNELS 3 Xrotation Yrotation Zrotation
				JOINT Neck
				{
					OFFSET	0.0000	26.0744	-0.5423
					CHANNELS 3 Xrotation Yrotation Zrotation
					JOINT Head
					{
						OFFSET	-0.0001	14.7245	4.0051
						CHANNELS 3 Xrotation Yrotation Zrotation
						End Site
						{
							OFFSET	0.0001	20.5738	0.6142
						}
					}
				}
				JOINT LClavicle
				{
					OFFSET	2.6325	25.1631	8.6210
					CHANNELS 3 Xrotation Yrotation Zrotation
					JOINT LShoulder
					{
						OFFSET	15.3790	3.6093	-5.8402
						CHANNELS 3 Xrotation Yrotation Zrotation
						JOINT LForearm
						{
							OFFSET	32.6679	-0.1158	-0.2831
							CHANNELS 3 Xrotation Yrotation Zrotation
							JOINT LHand
							{
								OFFSET	27.2520	0.0790	-0.1633
								CHANNELS 3 Xrotation Yrotation Zrotation
								JOINT LFinger1
								{
									OFFSET	10.5621	0.9237	2.9336
									CHANNELS 3 Xrotation Yrotation Zrotation
									JOINT LFinger11
									{
										OFFSET	3.9508	-0.9634	0.6961
										CHANNELS 3 Xrotation Yrotation Zrotation
										JOINT LFinger12
										{
											OFFSET	2.6971	-0.6578	0.4754
											CHANNELS 3 Xrotation Yrotation Zrotation
											End Site
											{
												OFFSET	1.9192	-0.5729	0.3113
											}
										}
									}
								}
								JOINT LFinger2
								{
									OFFSET	10.7197	1.0667	0.2554
									CHANNELS 3 Xrotation Yrotation Zrotation
									JOINT LFinger21
									{
										OFFSET	4.8849	0.0136	-0.0289
										CHANNELS 3 Xrotation Yrotation Zrotation
										JOINT LFinger22
										{
											OFFSET	2.7077	0.0083	-0.0165
											CHANNELS 3 Xrotation Yrotation Zrotation
											End Site
											{
												OFFSET	2.4320	-0.1717	0.0033
											}
										}
									}
								}
								JOINT LFinger3
								{
									OFFSET	10.1592	0.7119	-2.4035
									CHANNELS 3 Xrotation Yrotation Zrotation
									JOINT LFinger31
									{
										OFFSET	4.4325	-0.2244	-0.2775
										CHANNELS 3 Xrotation Yrotation Zrotation
										JOINT LFinger32
										{
											OFFSET	2.5259	-0.1271	-0.1586
											CHANNELS 3 Xrotation Yrotation Zrotation
											End Site
											{
												OFFSET	2.2333	-0.2746	-0.1056
											}
										}
									}
								}
								JOINT LFinger4
								{
									OFFSET	9.4273	-0.7164	-4.1508
									CHANNELS 3 Xrotation Yrotation Zrotation
									JOINT LFinger41
									{
										OFFSET	2.7264	-0.5686	-0.7526
										CHANNELS 3 Xrotation Yrotation Zrotation
										JOINT LFinger42
										{
											OFFSET	1.9994	-0.4164	-0.5523
											CHANNELS 3 Xrotation Yrotation Zrotation
											End Site
											{
												OFFSET	1.7745	-0.4876	-0.4071
											}
										}
									}
								}
								JOINT LFinger0
								{
									OFFSET	2.1850	-1.6538	1.6564
									CHANNELS 3 Xrotation Yrotation Zrotation
									JOINT LFinger01
									{
										OFFSET	4.0680	-1.3359	3.0670
										CHANNELS 3 Xrotation Yrotation Zrotation
										JOINT LFinger02
										{
											OFFSET	2.6787	-0.9585	1.9299
											CHANNELS 3 Xrotation Yrotation Zrotation
											End Site
											{
												OFFSET	1.9698	-0.6781	1.3488
											}
										}
									}
								}
							}
						}
					}
				}
				JOINT RClavicle
				{
					OFFSET	-2.6324	25.1631	8.6210
					CHANNELS 3 Xrotation Yrotation Zrotation
					JOINT RShoulder
					{
						OFFSET	-15.3817	3.6099	-5.8412
						CHANNELS 3 Xrotation Yrotation Zrotation
						JOINT RForearm
						{
							OFFSET	-32.6679	-0.1158	-0.2831
							CHANNELS 3 Xrotation Yrotation Zrotation
							JOINT RHand
							{
								OFFSET	-27.2520	0.0791	-0.1632
								CHANNELS 3 Xrotation Yrotation Zrotation
								JOINT RFinger1
								{
									OFFSET	-10.5622	0.9238	2.9336
									CHANNELS 3 Xrotation Yrotation Zrotation
									JOINT RFinger11
									{
										OFFSET	-3.9508	-0.9634	0.6961
										CHANNELS 3 Xrotation Yrotation Zrotation
										JOINT RFinger12
										{
											OFFSET	-2.6970	-0.6580	0.4754
											CHANNELS 3 Xrotation Yrotation Zrotation
											End Site
											{
												OFFSET	-1.9192	-0.5729	0.3113
											}
										}
									}
								}
								JOINT RFinger2
								{
									OFFSET	-10.7197	1.0668	0.2554
									CHANNELS 3 Xrotation Yrotation Zrotation
									JOINT RFinger21
									{
										OFFSET	-4.8849	0.0136	-0.0289
										CHANNELS 3 Xrotation Yrotation Zrotation
										JOINT RFinger22
										{
											OFFSET	-2.7077	0.0083	-0.0166
											CHANNELS 3 Xrotation Yrotation Zrotation
											End Site
											{
												OFFSET	-2.4320	-0.1717	0.0033
											}
										}
									}
								}
								JOINT RFinger3
								{
									OFFSET	-10.1592	0.7119	-2.4035
									CHANNELS 3 Xrotation Yrotation Zrotation
									JOINT RFinger31
									{
										OFFSET	-4.4325	-0.2244	-0.2775
										CHANNELS 3 Xrotation Yrotation Zrotation
										JOINT RFinger32
										{
											OFFSET	-2.5259	-0.1271	-0.1587
											CHANNELS 3 Xrotation Yrotation Zrotation
											End Site
											{
												OFFSET	-2.2333	-0.2746	-0.1056
											}
										}
									}
								}
								JOINT RFinger4
								{
									OFFSET	-9.4273	-0.7164	-4.1508
									CHANNELS 3 Xrotation Yrotation Zrotation
									JOINT RFinger41
									{
										OFFSET	-2.7264	-0.5686	-0.7526
										CHANNELS 3 Xrotation Yrotation Zrotation
										JOINT RFinger42
										{
											OFFSET	-1.9993	-0.4162	-0.5523
											CHANNELS 3 Xrotation Yrotation Zrotation
											End Site
											{
												OFFSET	-1.7745	-0.4876	-0.4071
											}
										}
									}
								}
								JOINT RFinger0
								{
									OFFSET	-2.1850	-1.6536	1.6563
									CHANNELS 3 Xrotation Yrotation Zrotation
									JOINT RFinger01
									{
										OFFSET	-4.0679	-1.3361	3.0671
										CHANNELS 3 Xrotation Yrotation Zrotation
										JOINT RFinger02
										{
											OFFSET	-2.6786	-0.9584	1.9299
											CHANNELS 3 Xrotation Yrotation Zrotation
											End Site
											{
												OFFSET	-1.9698	-0.6781	1.3488
											}
										}
									}
								}
							}
						}
					}
				}
			}
		}
	}
	JOINT RThigh
	{
		OFFSET	-10.9616	4.6318	-0.9035
		CHANNELS 3 Xrotation Yrotation Zrotation
		JOINT RShin
		{
			OFFSET	-0.8771	-47.6778	0.0000
			CHANNELS 3 Xrotation Yrotation Zrotation
			JOINT RFoot
			{
				OFFSET	0.0000	-46.8167	0.0000
				CHANNELS 3 Xrotation Yrotation Zrotation
				JOINT RToe
				{
					OFFSET	0.0000	-5.1456	10.7601
					CHANNELS 3 Xrotation Yrotation Zrotation
					End Site
					{
						OFFSET	0.0000	0.0000	7.2185
					}
				}
			}
		}
	}
	JOINT LThigh
	{
		OFFSET	10.9614	4.6322	-0.9035
		CHANNELS 3 Xrotation Yrotation Zrotation
		JOINT LShin
		{
			OFFSET	0.8772	-47.6781	0.0000
			CHANNELS 3 Xrotation Yrotation Zrotation
			JOINT LFoot
			{
				OFFSET	0.0000	-46.8167	0.0000
				CHANNELS 3 Xrotation Yrotation Zrotation
				JOINT LToe
				{
					OFFSET	0.0000	-5.1456	10.7601
					CHANNELS 3 Xrotation Yrotation Zrotation
					End Site
					{
						OFFSET	0.0000	0.0000	7.2185
					}
				}
			}
		}
	}
}
MOTION
Frames:	4
Frame Time: 0.0333333000
	19.9085	103.2584	-93.4759	13.586950	19.274990	28.041470	0.000000	0.000000	0.000000	1.194590	-0.747904	8.943773	4.324615	-1.712079	29.866240	0.000000	0.000000	0.000000	-84.922100	-43.667750	-62.857590	0.000000	0.000000	-15.367730	1.440671	-49.294900	-68.425960	0.000000	-20.513110	0.000000	0.000000	0.000000	0.000000	0.000000	0.000000	0.000000	0.000000	0.000000	0.000000	0.000000	0.000000	0.000000	0.000000	0.000000	0.000000	0.000000	0.000000	0.000000	0.000000	0.000000	0.000000	0.000000	0.000000	0.000000	0.000000	0.000000	0.000000	0.000000	0.000000	0.000000	0.000000	0.000000	0.000000	0.000000	0.000000	0.000000	0.000000	0.000000	0.000000	0.000000	0.000000	0.000000	0.000000	0.000000	0.000000	0.000000	0.000000	0.000000	0.000000	0.000000	-15.652480	-53.554380	25.335510	-4.057162	0.000000	33.035030	0.000000	-61.706060	-5.372577	-11.213320	0.000000	0.000000	0.000000	0.000000	0.000000	0.000000	0.000000	0.000000	0.000000	0.000000	0.000000	0.000000	0.000000	0.000000	0.000000	0.000000	0.000000	0.000000	0.000000	0.000000	0.000000	0.000000	0.000000	0.000000	0.000000	0.000000	0.000000	0.000000	0.000000	0.000000	0.000000	0.000000	0.000000	0.000000	0.000000	0.000000	0.000000	0.000000	0.000000	0.000000	0.000000	0.000000	0.000000	0.000000	0.000000	-15.414770	5.123291	-38.965950	5.238946	0.000000	0.000000	-3.619601	0.118165	0.056673	0.000000	0.000000	0.000000	-18.494400	5.634776	-31.322280	10.998590	0.000001	0.000000	-1.611419	1.792346	0.879442	0.000000	0.000000	0.000000
	19.7013	103.2097	-93.6577	14.226770	19.133930	27.794010	0.000000	0.000000	0.000000	1.244257	-0.803421	8.764386	4.513674	-1.879356	29.276110	0.000000	0.000000	0.000000	-86.926470	-44.399690	-63.952400	0.000000	0.000000	-15.198100	1.945034	-50.302930	-66.986410	0.000000	-21.302870	0.000000	0.000000	0.000000	0.000000	0.000000	0.000000	0.000000	0.000000	0.000000	0.000000	0.000000	0.000000	0.000000	0.000000	0.000000	0.000000	0.000000	0.000000	0.000000	0.000000	0.000000	0.000000	0.000000	0.000000	0.000000	0.000000	0.000000	0.000000	0.000000	0.000000	0.000000	0.000000	0.000000	0.000000	0.000000	0.000000	0.000000	0.000000	0.000000	0.000000	0.000000	0.000000	0.000000	0.000000	0.000000	0.000000	0.000000	0.000000	0.000000	0.000000	0.000000	-15.523890	-50.879740	24.701160	-5.350656	0.000000	35.152400	0.000000	-64.413060	-5.126884	-12.336260	0.000000	0.000000	0.000000	0.000000	0.000000	0.000000	0.000000	0.000000	0.000000	0.000000	0.000000	0.000000	0.000000	0.000000	0.000000	0.000000	0.000000	0.000000	0.000000	0.000000	0.000000	0.000000	0.000000	0.000000	0.000000	0.000000	0.000000	0.000000	0.000000	0.000000	0.000000	0.000000	0.000000	0.000000	0.000000	0.000000	0.000000	0.000000	0.000000	0.000000	0.000000	0.000000	0.000000	0.000000	0.000000	-15.896160	5.547528	-38.911930	4.909458	0.000000	0.000000	-3.515180	1.742872	0.896823	0.000000	0.000000	0.000000	-19.639130	5.928610	-31.440490	11.907420	0.000001	0.000000	0.081396	1.225046	0.580377	0.000000	0.000000	0.000000
	19.2522	103.1417	-93.8544	14.450560	19.201870	27.351980	0.000000	0.000000	0.000000	1.344734	-0.917480	8.663959	4.904150	-2.201047	28.958110	0.000000	0.000000	0.000000	-88.608020	-44.377190	-64.770110	0.000000	0.000000	-15.017690	3.932071	-51.490850	-64.047760	0.000000	-23.465830	0.000000	0.000000	0.000000	0.000000	0.000000	0.000000	0.000000	0.000000	0.000000	0.000000	0.000000	0.000000	0.000000	0.000000	0.000000	0.000000	0.000000	0.000000	0.000000	0.000000	0.000000	0.000000	0.000000	0.000000	0.000000	0.000000	0.000000	0.000000	0.000000	0.000000	0.000000	0.000000	0.000000	0.000000	0.000000	0.000000	0.000000	0.000000	0.000000	0.000000	0.000000	0.000000	0.000000	0.000000	0.000000	0.000000	0.000000	0.000000	0.000000	0.000000	0.000000	-15.315960	-49.651630	24.203260	-5.824623	0.000000	37.396730	0.000000	-64.875210	-5.372417	-12.716900	0.000000	0.000000	0.000000	0.000000	0.000000	0.000000	0.000000	0.000000	0.000000	0.000000	0.000000	0.000000	0.000000	0.000000	0.000000	0.000000	0.000000	0.000000	0.000000	0.000000	0.000000	0.000000	0.000000	0.000000	0.000000	0.000000	0.000000	0.000000	0.000000	0.000000	0.000000	0.000000	0.000000	0.000000	0.000000	0.000000	0.000000	0.000000	0.000000	0.000000	0.000000	0.000000	0.000000	0.000000	0.000000	-16.200910	5.663321	-38.467010	5.045984	0.000000	0.000000	-3.174989	1.162129	0.597597	0.000000	0.000000	0.000000	-19.780470	7.314308	-31.076030	12.707020	0.000001	0.000000	1.514443	0.777862	0.365211	0.000000	0.000000	0.000000
	18.3283	103.1067	-93.7287	14.617750	18.800580	26.689070	0.000000	0.000000	0.000000	1.280505	-1.075136	8.538311	4.781899	-2.763930	28.558660	0.000000	0.000000	0.000000	-88.989760	-44.277980	-65.821630	0.000000	0.000000	-15.049560	8.342964	-51.670820	-59.652140	0.000000	-27.656110	0.000000	0.000000	0.000000	0.000000	0.000000	0.000000	0.000000	0.000000	0.000000	0.000000	0.000000	0.000000	0.000000	0.000000	0.000000	0.000000	0.000000	0.000000	0.000000	0.000000	0.000000	0.000000	0.000000	0.000000	0.000000	0.000000	0.000000	0.000000	0.000000	0.000000	0.000000	0.000000	0.000000	0.000000	0.000000	0.000000	0.000000	0.000000	0.000000	0.000000	0.000000	0.000000	0.000000	0.000000	0.000000	0.000000	0.000000	0.000000	0.000000	0.000000	0.000000	-14.405160	-48.999790	24.473840	-4.063682	0.000000	40.219940	0.000000	-63.795060	-5.937994	-13.118060	0.000000	0.000000	0.000000	0.000000	0.000000	0.000000	0.000000	0.000000	0.000000	0.000000	0.000000	0.000000	0.000000	0.000000	0.000000	0.000000	0.000000	0.000000	0.000000	0.000000	0.000000	0.000000	0.000000	0.000000	0.000000	0.000000	0.000000	0.000000	0.000000	0.000000	0.000000	0.000000	0.000000	0.000000	0.000000	0.000000	0.000000	0.000000	0.000000	0.000000	0.000000	0.000000	0.000000	0.000000	0.000000	-16.518150	5.666210	-37.157470	5.388029	0.000001	0.000000	-2.599958	-0.223257	-0.105052	0.000000	0.000000	0.000000	-18.308730	10.473370	-29.959060	11.963290	0.000001	0.000000	1.748610	1.510398	0.722492	0.000000	0.000000	0.000000
